<?xml version="1.0" encoding="UTF-8" standalone="no"?>
<svg viewBox="2 3 229 153.4" version="1.1" xmlns="http://www.w3.org/2000/svg">
	<g>
		<rect x="4" y="5" width="220" height="140" rx="16" ry="16" fill="#f9b213" />
		<mask id="mask0_2514_14141" maskUnits="userSpaceOnUse" x="1" y="1" width="224" height="145">
			<path d="M 17.4339,3.14912 208.513,1.78177 c 8.399,-0.0601 15.257,6.70133 15.318,15.10013 l 0.798,111.5731 c 0.06,8.399 -6.701,15.258 -15.1,15.318 L 18.3638,145.141 C 9.42316,145.205 2.11775,138.004 2.05377,129.063 L 1.27015,19.5583 C 1.20582,10.5684 8.45634,3.21337 17.4463,3.14903 Z" fill="#ffffff" />
		</mask>
		<g mask="url(#mask0_2514_14141)">
			<path d="m 39.8891,98.6823 c 5.7267,-10.0247 13.3498,-16.4286 24.9385,-16.0838 3.7684,0.1109 7.3891,1.404 11.2808,-0.0739 2.2783,-0.862 4.5197,0.6774 6.2931,2.2907 2.0566,1.8842 4.1133,3.8054 5.9606,5.8867 1.9088,2.1551 2.931,1.798 5.0615,-0.1848 6.6504,-6.2069 14.1254,-10.6773 23.7934,-7.032 0.837,0.3202 1.416,0.2956 2.13,-0.1355 4.914,-2.894 8.83,-1.1576 12.389,2.6109 0.776,0.8128 1.454,2.6847 2.734,1.9458 1.404,-0.8128 1.294,-2.5985 0.702,-4.1749 -0.997,-2.6847 -0.874,-5.5049 -0.8,-8.3005 0.16,-6.33 2.919,-9.6428 9.15,-10.1231 5.246,-0.4064 10.567,-0.4187 15.825,-0.1232 6.17,0.3448 9.089,3.6946 9.385,9.9508 0.073,1.5394 0.036,3.0911 0.049,5.4433 5.443,-6.2561 10.739,-11.6502 17.709,-15.1601 14.84,-7.463 29.766,-7.7586 44.815,-0.899 4.126,1.8842 7.919,4.2364 11.527,7.2414 6.528,5.4064 6.762,12.9556 3.4,19.4827 3.275,0.7266 6.613,0.7143 9.753,2.0074 2.365,0.9606 4.138,-1.2685 5.924,-2.7586 17.672,-14.803 41.625,-12.7094 56.268,4.8769 18.005,21.6255 5.37,55.9485 -22.056,62.1795 -9.274,2.106 -16.885,0.062 -24.68,-3.214 -8.104,-3.399 -14.076,-9.483 -18.03,-17.426 -0.258,-0.517 -0.615,-0.973 -1.231,-1.921 -4.348,6.527 -9.323,11.958 -15.702,15.899 -20.197,12.487 -47.5,10.283 -64.397,-9.766 -2.943,-3.498 -3.817,-2.648 -5.382,0.923 -4.408,10.05 -12.216,15.813 -23.152,16.958 -6.182,0.653 -8.584,-1.662 -8.67,-7.931 -0.148,-11.305 -0.185,-22.61 -0.271,-34.766 -1.687,1.589 -2.907,2.661 -4.027,3.806 -2.205,2.241 -4.852,3.645 -7.931,2.709 -2.981,-0.899 -2.981,0.542 -2.944,2.685 0.124,7.771 0.247,15.529 0.185,23.3 -0.049,7.377 -3.14,10.481 -10.468,10.69 -4.507,0.123 -9.015,0.16 -13.5097,0.086 -7.1552,-0.098 -10.3694,-3.436 -10.431,-10.726 -0.0862,-9.779 -0.1478,-19.557 -0.2217,-30.604 -3.8916,4.434 -8.0296,6.195 -13.3128,4.372 0.0616,9.113 0.1478,17.783 0.1847,26.466 0.0247,7.352 -3.0665,10.591 -10.3325,10.751 -4.8153,0.111 -9.6305,0.209 -14.4458,0.111 -5.4926,-0.111 -8.3128,-2.365 -9.2734,-7.845 -0.5542,-3.153 -1.6749,-2.66 -3.6453,-1.404 -6.8104,4.36 -13.7808,8.116 -22.1182,9.002 -11.17,1.183 -20.96064,-1.859 -29.2611,-9.101 -2.8079,-2.45 -4.0764,-1.945 -6.2316,0.321 -3.6083,3.78 -6.8719,8.042 -12.1921,9.815 -1.2808,0.431 -1.8719,0.493 -3.1896,-0.259 -5.2463,-2.992 -8.9902,-7.586 -13.1281,-11.724 -2.5985,-2.586 -3.9409,-3.805 -6.5394,0.333 -4.5567,7.266 -11.798,10.776 -20.2586,11.551 -5.4803,0.505 -8.3375,-1.896 -8.3991,-7.401 -0.2586,-27.328 -0.4803,-54.6676 -0.5541,-82.0075 -0.0124,-6.2561 3.3128,-9.2364 9.6305,-9.3842 4.9631,-0.1109 9.9384,-0.1847 14.9138,-0.1355 6.8719,0.0739 9.7167,3.0049 9.8399,10.0246 0.0616,3.9656 0.0616,7.9434 0.0985,12.6848 4.8522,-3.8301 8.1158,-8.1651 12.968,-10.7636 10.1847,-5.4556 23.6453,-4.0763 32.10591,3.7069 1.56404,1.4409 2.63547,3.0665 2.47537,5.271 C -5.54189,84.569 -4.93844,85 -2.98031,84.4704 14.2611,79.8029 28.399,84.9015 39.9138,98.6699 Z M -29.2242,109.84 c -0.1108,0.086 -0.1724,0.222 -0.2586,0.345 -7.2414,6.416 -7.2537,6.576 -1.0345,9.963 0.3449,-3.375 0.6774,-6.687 1.0099,-9.988 z M 215.554,87.6478 v -0.0493 c 7.451,-0.0492 14.914,-0.2956 22.365,-0.0862 3.657,0.0985 4.495,-1.4778 4.569,-4.6921 0.086,-3.7562 -2.87,-5.2956 -5.013,-7.1675 -13.682,-11.9458 -35.037,-13.2143 -50.776,-3.4729 -15.64,9.6921 -23.719,29.7292 -19.162,47.4142 4.643,18.066 19.766,31.083 37.488,32.709 20.184,1.847 36.17,-8.547 44.741,-25.936 4.076,-8.288 3.399,-17.204 3.19,-26.034 -0.062,-2.5128 -1.872,-2.4143 -3.646,-2.3897 -6.367,0.0739 -12.746,-0.0369 -19.101,0.2217 -10.517,0.4434 -19.458,9.064 -20.258,18.978 -0.197,2.488 0.369,3.374 2.882,3.3 4.963,-0.147 9.938,0.087 14.889,-0.197 3.177,-0.184 4.15,0.986 3.867,3.978 -0.271,2.82 0.812,6.306 -3.917,6.342 -11.65,0.062 -23.3,0.124 -34.95,0.234 -2.882,0.025 -4.175,-1.145 -4.175,-4.15 0.012,-11.49 -0.025,-22.992 -0.234,-34.4825 -0.062,-3.3251 1.342,-4.3719 4.421,-4.3596 7.611,0.0369 15.222,-0.0862 22.832,-0.1355 z M -44.7045,116.195 c 11.2562,-11.33 22.2784,-22.4389 33.3621,-33.5965 -2.1182,-2.3645 -4.7167,-4.0394 -7.6601,-4.9754 -9.2241,-2.9556 -17.3891,-1.0221 -24.1625,5.9237 -5.0247,5.1601 -9.8646,10.4926 -14.7907,15.7512 -1.096,-9.5689 -1.2685,-18.3497 -1.1699,-27.1305 0.0492,-3.7069 -1.4286,-4.9508 -5.0123,-4.7045 -3.867,0.2587 -7.7833,0.3572 -11.638,0.0739 -4.2364,-0.3078 -5.6527,1.1084 -5.5911,5.505 0.3694,25.1601 0.4433,50.3201 0.6157,75.4801 0.0124,1.995 0.0247,3.99 0.037,6.01 13.1773,-1.01 19.8153,-7.266 22.1182,-20.837 1.1823,0.985 2.266,1.785 3.2143,2.709 5.2217,5.098 10.6527,10.012 15.5419,15.419 2.9433,3.239 5.0123,2.734 7.5985,-0.013 2.6478,-2.832 5.3079,-5.665 8.165,-8.3 3.0296,-2.796 2.6478,-4.852 -0.3202,-7.599 -6.8226,-6.293 -13.3374,-12.918 -20.2832,-19.729 z m 365.0865,3.214 c 0.197,-18.042 -13.892,-32.2908 -32.316,-32.6726 -17.635,-0.3571 -32.709,14.3966 -32.832,32.3156 -0.123,17.537 14.187,32.881 32.328,32.955 19.371,0.087 33.497,-15.899 32.832,-32.598 z m -279.68,2.057 C 41.2438,105.653 29.2118,88.8177 8.15269,88.7562 -10.4064,88.6946 -24.3596,102.488 -24.4089,121.589 -24.4458,139.163 -11.1823,154.2 8.42362,154.039 29.0394,153.867 41.2192,137.229 40.702,121.466 Z m 25.197,-13.781 c 3.1527,3.288 5.4187,5.566 7.5862,7.955 1.9581,2.143 3.7192,2.291 5.8005,0.099 3.3005,-3.485 6.7364,-6.835 10.1478,-10.222 1.9212,-1.909 1.8719,-3.707 -0.0739,-5.5786 -3.3498,-3.2266 -6.7488,-6.4039 -9.9261,-9.8029 -2.3892,-2.5616 -4.3596,-2.1798 -6.4655,0.1847 -2.0936,2.3522 -4.2242,4.6552 -7.1675,7.8941 -0.0247,-3.202 -0.2586,-4.766 0,-6.2315 0.6527,-3.7069 -1.17,-3.8547 -4.0641,-3.3498 -10.0492,1.7611 -17.7463,10.1847 -17.8941,20.69 -0.1847,13.645 0.2094,27.303 0.234,40.948 0,2.943 1.3301,3.682 3.9779,3.596 4.3349,-0.148 8.6822,-0.234 13.0049,-0.037 4.1133,0.185 5.2832,-1.613 5.2093,-5.542 -0.2709,-12.992 -0.2586,-25.997 -0.3571,-40.591 z m 48.461,-10.8131 -0.924,-0.6527 c 0,-1.5148 -0.197,-3.0665 0,-4.5566 0.48,-3.5715 -1.269,-3.8794 -4.187,-3.3744 -9.8401,1.6995 -17.5988,10.2093 -17.7958,20.7758 -0.2586,13.498 0.1601,27.02 0.1847,40.517 0,3.091 1.4163,4.064 4.298,3.966 4.4951,-0.148 9.0151,-0.234 13.5101,-0.049 3.251,0.135 4.458,-1.207 4.384,-4.323 -0.123,-5.899 -0.111,-11.798 -0.16,-17.697 -0.062,-7.623 -0.111,-15.259 -0.172,-23.916 3.066,3.128 5.344,5.418 7.586,7.746 1.933,2.007 3.694,2.377 5.813,0.086 3.263,-3.522 6.711,-6.884 10.123,-10.271 1.896,-1.884 2.056,-3.534 -0.037,-5.4802 -3.412,-3.165 -6.749,-6.4162 -9.926,-9.8152 -2.426,-2.5985 -4.434,-2.1675 -6.552,0.2217 -2.032,2.2906 -4.101,4.5566 -6.158,6.8226 z m 26.502,23.7191 c 0.037,4.803 0.074,9.618 0.099,14.421 0.037,4.803 0.295,9.631 0,14.421 -0.197,3.375 1.206,3.72 3.977,3.35 9.385,-1.244 17.71,-10.345 17.796,-20.135 0.111,-13.646 -0.172,-27.291 -0.111,-40.9362 0.012,-3.3251 -1.355,-4.3842 -4.446,-4.2611 -4.335,0.1601 -8.682,0.234 -13.017,0.0985 -3.424,-0.1108 -4.643,1.2562 -4.569,4.6675 0.222,9.4583 0.185,18.9163 0.259,28.3743 z m 63.301,3.596 c -1.638,-14.138 4.199,-23.879 17.229,-30.6648 -8.56,0.0615 -15.838,0.2586 -23.104,0.0985 -3.325,-0.0739 -4.199,1.096 -4.039,4.298 0.295,5.8743 0.148,11.7613 0.197,17.6473 0.041,6.322 3.284,9.196 9.729,8.621 z M 151.724,71.5394 c -2.475,0.0123 -4.951,0.2094 -7.414,0 -3.731,-0.3079 -4.039,1.9458 -3.768,4.6798 0.283,2.7586 -1.392,6.7118 3.842,6.6626 4.323,-0.0493 8.658,-0.2956 12.968,-0.0247 4.15,0.2587 5.382,-1.367 5.185,-5.3817 -0.296,-6.0222 -0.074,-6.0345 -6.182,-5.9853 -1.54,0 -3.091,0.0247 -4.631,0.0493 z" fill="#000000" />
			<path d="m 40.702,121.465 c 0.5172,15.764 -11.6503,32.39 -32.27835,32.574 -19.60595,0.173 -32.86945,-14.877 -32.83255,-32.45 0.037,-19.114 14.0025,-32.8945 32.56162,-32.8329 C 29.2118,88.8176 41.2438,105.653 40.702,121.465 Z m -48.52219,-0.11 h -0.02463 c 0.02463,4.027 0.17241,8.066 0.04926,12.093 -0.09852,3.042 1.26848,4.175 4.16257,4.15 7.9064,-0.073 15.82509,-0.086 23.73149,-0.086 2.7833,0 4.3104,-0.997 4.2488,-4.088 -0.1478,-8.215 -0.1601,-16.441 -0.1724,-24.656 0,-2.524 -1.1577,-3.645 -3.6946,-3.608 -8.3744,0.111 -16.74876,0.185 -25.12315,0.222 -2.32758,0.012 -3.36207,1.034 -3.28818,3.411 0.11084,4.187 0.08621,8.374 0.11084,12.562 z" fill="#fefefe" />
			<path d="m 65.8991,107.673 c 0.1108,14.606 0.0862,27.598 0.3571,40.591 0.0862,3.928 -1.0837,5.726 -5.2093,5.542 -4.3227,-0.197 -8.67,-0.111 -13.0049,0.037 -2.6478,0.086 -3.9656,-0.653 -3.9779,-3.596 -0.0246,-13.658 -0.4187,-27.303 -0.234,-40.949 0.1478,-10.4924 7.8449,-18.916 17.8941,-20.6894 2.8941,-0.5049 4.7168,-0.3571 4.064,3.3497 -0.2586,1.4779 -0.0246,3.0296 0,6.2316 2.9434,-3.2389 5.0863,-5.5419 7.1675,-7.8941 2.106,-2.3769 4.0764,-2.7463 6.4656,-0.1847 3.165,3.399 6.5763,6.5763 9.9261,9.8029 1.9458,1.872 2.0074,3.67 0.0739,5.579 -3.4114,3.387 -6.8473,6.736 -10.1478,10.222 -2.0813,2.192 -3.8424,2.044 -5.8005,-0.099 -2.1675,-2.377 -4.4335,-4.668 -7.5862,-7.956 z" fill="#fefefe" />
			<path d="m 114.372,96.8597 c 2.057,-2.2783 4.126,-4.532 6.158,-6.8227 2.118,-2.3891 4.125,-2.8202 6.551,-0.2216 3.178,3.399 6.515,6.6502 9.926,9.8152 2.094,1.9454 1.934,3.5964 0.037,5.4804 -3.411,3.387 -6.859,6.749 -10.123,10.271 -2.118,2.291 -3.879,1.921 -5.813,-0.086 -2.241,-2.34 -4.532,-4.631 -7.586,-7.747 0.062,8.658 0.111,16.293 0.173,23.917 0.049,5.899 0.037,11.798 0.16,17.697 0.061,3.115 -1.133,4.458 -4.385,4.322 -4.495,-0.184 -9.002,-0.098 -13.5094,0.05 -2.8818,0.098 -4.2857,-0.875 -4.2981,-3.966 -0.0246,-13.51 -0.4433,-27.02 -0.1847,-40.517 0.1971,-10.5667 7.9557,-19.0765 17.7952,-20.776 2.919,-0.505 4.656,-0.1971 4.188,3.3743 -0.197,1.4902 -0.013,3.0419 0,4.5567 l 0.923,0.6527 z" fill="#fefefe" />
			<path d="m 140.862,120.579 c -0.074,-9.458 -0.037,-18.916 -0.258,-28.3745 -0.074,-3.4113 1.133,-4.7906 4.568,-4.6675 4.335,0.1478 8.683,0.0616 13.018,-0.0985 3.091,-0.1108 4.458,0.936 4.446,4.2611 -0.062,13.6454 0.234,27.2904 0.11,40.9364 -0.086,9.802 -8.411,18.891 -17.795,20.135 -2.771,0.369 -4.175,0.025 -3.978,-3.35 0.283,-4.79 0.025,-9.606 0,-14.421 -0.037,-4.803 -0.074,-9.618 -0.099,-14.421 z" fill="#fefefe" />
			<path d="m 151.737,71.5152 c 1.539,-0.0123 3.091,-0.0246 4.63,-0.0369 6.108,-0.0493 5.874,-0.0369 6.182,5.9852 0.197,4.0148 -1.034,5.6404 -5.184,5.3818 -4.311,-0.2709 -8.646,-0.0123 -12.968,0.0246 -5.234,0.0493 -3.559,-3.9039 -3.843,-6.6625 -0.271,-2.7217 0.037,-4.9877 3.769,-4.6798 2.45,0.197 4.938,0 7.414,-0.0124 z" fill="#fefefe" />
			<path d="m -7.80793,121.355 c -0.02463,-4.188 0,-8.375 -0.11084,-12.562 -0.06157,-2.377 0.96059,-3.399 3.28818,-3.411 8.37438,-0.05 16.74879,-0.111 25.12319,-0.222 2.5369,-0.037 3.6822,1.084 3.6945,3.608 0.0247,8.227 0.0247,16.441 0.1725,24.656 0.0615,3.091 -1.4779,4.088 -4.2488,4.088 -7.9064,0 -15.82514,0 -23.73154,0.086 -2.88177,0.025 -4.26108,-1.108 -4.16256,-4.15 0.12315,-4.027 -0.02463,-8.066 -0.04926,-12.093 z m 6.21921,-0.284 c 0.05747,6.913 3.34565,10.349 9.86454,10.308 6.51888,-0.041 9.80708,-3.321 9.86458,-9.84 -0.0329,-6.748 -3.4196,-10.11 -10.16015,-10.086 -6.42857,0.025 -9.61823,3.231 -9.56897,9.618 z" fill="#000000" />
		</g>
		<rect width="130" height="8" x="71" y="37" fill="#000000" />
		<rect width="130" height="8" x="71" y="23" fill="#000000" />
		<path d="M 19,54 39,41 v 26 z" fill="#000000" />
		<rect stroke="#000000" stroke-width="5" x="4" y="5" width="220" height="140" rx="16" ry="16" fill="none" />
	</g>
</svg>
